<svg width="157" height="31" viewBox="0 0 157 31" fill="none" xmlns="http://www.w3.org/2000/svg">
<path d="M0 30.4424H6.53791C6.53791 30.4424 19.3614 5.48424 50.0887 2.42507C50.0887 2.42507 49.4006 0.837797 49.0638 0.444336C49.063 0.444336 17.4204 1.64797 0 30.4424Z" fill="#AA182C"/>
<path d="M40.8604 10.4183C49.7076 11.1175 48.5956 19.6441 48.5956 19.6441C48.4052 21.2314 48.0172 22.3858 47.0157 23.4116C41.9858 28.5659 36.832 25.0623 36.832 25.0623C40.8415 28.3835 47.3579 28.108 47.3579 28.108C56.0417 22.3644 54.6046 12.3605 51.6756 5.9668C51.6756 5.9668 45.7277 6.79576 40.8604 10.4183Z" fill="black"/>
<path d="M39.2307 6.64844C39.2307 6.64844 27.4715 14.3835 33.7526 24.2363C35.6271 27.1775 41.0593 29.5123 46.6345 29.4721C46.6345 29.4721 43.5321 30.5183 40.6938 30.4414C37.8555 30.3645 24.1895 30.4414 24.1895 30.4414C24.1895 30.4414 24.7455 14.5732 39.2307 6.64844Z" fill="black"/>
<path d="M22.2587 30.4413H9.35352C9.35352 30.4413 17.0348 13.6556 39.6405 5.39551C39.6405 5.39551 24.2482 11.1741 22.2587 30.4413Z" fill="black"/>
<path d="M67.8787 0.861328H66.4766V2.08465H67.8787V0.861328Z" fill="black"/>
<path d="M69.8669 0.861328H68.4648V2.08465H69.8669V0.861328Z" fill="black"/>
<path d="M105.021 0.861328H103.619V2.08465H105.021V0.861328Z" fill="black"/>
<path d="M107.011 0.861328H105.609V2.08465H107.011V0.861328Z" fill="black"/>
<path d="M143.784 0.861328H142.381V2.08465H143.784V0.861328Z" fill="black"/>
<path d="M145.771 0.861328H144.369V2.08465H145.771V0.861328Z" fill="black"/>
<path d="M74.8585 1.26105C74.8585 1.20848 74.848 1.15643 74.8279 1.10787C74.8076 1.05932 74.778 1.01522 74.7406 0.978089C74.7032 0.94096 74.6589 0.911529 74.61 0.891497C74.5612 0.871464 74.5089 0.861205 74.4561 0.861329H73.8633C73.7568 0.861329 73.6546 0.903412 73.5791 0.978349C73.5037 1.05329 73.4612 1.15496 73.4609 1.26105V11.8202H74.8585V1.26105Z" fill="black"/>
<path d="M79.1977 11.8218C79.2112 11.3747 79.1896 11.0563 79.1896 11.0563V5.31178C79.1896 5.20567 79.1473 5.10386 79.0721 5.02881C78.9968 4.95365 78.8947 4.91136 78.7882 4.91113H78.1944C78.0879 4.91136 77.9858 4.95365 77.9105 5.02881C77.8352 5.10386 77.793 5.20567 77.793 5.31178V11.6608C77.7113 12.1411 77.519 12.5908 77.0996 12.7419C76.5768 12.9316 75.7891 12.8949 75.7891 12.8949V14.1334C78.8735 14.2139 79.1645 12.8698 79.1977 11.8218Z" fill="black"/>
<path d="M153.544 9.46657V2.10704V1.26377C153.544 1.15776 153.502 1.05609 153.427 0.981131C153.352 0.906159 153.249 0.864054 153.143 0.864054H152.549C152.443 0.864054 152.34 0.906159 152.266 0.981131C152.191 1.05609 152.148 1.15776 152.148 1.26377V2.10704V9.46657C152.142 9.72562 152.035 9.97208 151.847 10.152C151.661 10.3318 151.41 10.4304 151.149 10.4261H150.258L148.81 1.89511L148.669 1.06346C148.66 1.01166 148.641 0.962096 148.614 0.917598C148.585 0.873101 148.548 0.834555 148.505 0.804149C148.463 0.773754 148.413 0.752101 148.363 0.740447C148.311 0.728781 148.258 0.727329 148.206 0.736172L147.621 0.834543C147.516 0.852263 147.421 0.910819 147.36 0.997343C147.298 1.08386 147.274 1.19126 147.291 1.29597L147.432 2.12671L148.841 10.4252H146.809V11.8202H151.153C151.783 11.8222 152.388 11.5757 152.836 11.1347C153.284 10.6937 153.539 10.094 153.544 9.46657Z" fill="black"/>
<path d="M156.996 2.10432V1.26105C156.995 1.15496 156.952 1.05329 156.878 0.978349C156.801 0.903412 156.7 0.861329 156.593 0.861329H156.001C155.948 0.861205 155.895 0.871464 155.846 0.891497C155.798 0.911529 155.753 0.94096 155.716 0.978089C155.678 1.01522 155.649 1.05932 155.629 1.10787C155.608 1.15643 155.598 1.20848 155.598 1.26105V2.10432V11.7907H157V2.10432H156.996Z" fill="black"/>
<path d="M117.454 1.26105C117.454 1.15496 117.411 1.05329 117.335 0.978349C117.26 0.903412 117.158 0.861329 117.052 0.861329H116.465C116.412 0.861205 116.361 0.871464 116.312 0.891497C116.263 0.911529 116.219 0.94096 116.181 0.978089C116.144 1.01522 116.114 1.05932 116.093 1.10787C116.074 1.15643 116.063 1.20848 116.063 1.26105V2.10432V9.46563C116.059 9.72468 115.95 9.97114 115.763 10.1511C115.576 10.3309 115.325 10.4295 115.065 10.4252H113.377C113.248 10.4281 113.119 10.4057 112.998 10.359C112.877 10.3124 112.768 10.2424 112.674 10.1533C112.581 10.0641 112.506 9.95754 112.454 9.83952C112.402 9.7215 112.374 9.59441 112.371 9.46563V2.10611V1.26284C112.371 1.21035 112.361 1.15837 112.341 1.10987C112.321 1.06137 112.292 1.0173 112.254 0.980186C112.217 0.943069 112.172 0.913626 112.124 0.893537C112.075 0.873448 112.023 0.863121 111.97 0.863121H111.376C111.27 0.863121 111.167 0.905226 111.093 0.980186C111.018 1.05516 110.975 1.15683 110.975 1.26284V2.10611V9.46563C110.97 9.72479 110.862 9.97148 110.674 10.1514C110.487 10.3312 110.235 10.4297 109.975 10.4252H108.601C108.813 9.96468 108.96 9.35747 108.96 8.55447C108.96 5.95127 107.805 4.73969 105.323 4.73969C102.979 4.73969 101.688 6.09435 101.688 8.55447C101.688 9.35929 101.828 9.96649 102.041 10.4252H97.5676C97.7778 9.90561 97.8802 9.23231 97.8802 8.37557C97.873 5.35223 95.931 4.9051 94.7742 4.9051H91.3063C90.7241 4.90487 90.1532 5.06449 89.6564 5.36651V1.26105C89.6564 1.15504 89.614 1.05337 89.5388 0.978406C89.4634 0.903435 89.3613 0.861329 89.2548 0.861329H88.6612C88.5546 0.861329 88.4525 0.903435 88.3772 0.978406C88.302 1.05337 88.2596 1.15504 88.2596 1.26105V10.4234H82.5956C82.3358 10.4277 82.0848 10.3294 81.8976 10.1499C81.7104 9.97035 81.6022 9.72434 81.5968 9.46563V2.10611V1.26284C81.5968 1.21027 81.5864 1.15822 81.5662 1.10967C81.5459 1.06111 81.5163 1.01701 81.479 0.979869C81.4415 0.94274 81.3972 0.91332 81.3483 0.893288C81.2996 0.873244 81.2472 0.862996 81.1944 0.863121H80.6016C80.495 0.863109 80.3929 0.905203 80.3174 0.98014C80.242 1.05508 80.1994 1.15675 80.1992 1.26284V2.10611V9.46563C80.2047 10.0945 80.4604 10.6955 80.9103 11.1369C81.3602 11.5783 81.9676 11.8241 82.5992 11.8202H91.3117V11.8471H94.7796C95.0419 11.8471 95.3185 11.8471 95.5934 11.8202H109.976C110.612 11.8212 111.224 11.5718 111.677 11.1263C112.128 11.5719 112.74 11.8215 113.376 11.8202H115.063C115.695 11.8226 116.301 11.5762 116.749 11.135C117.198 10.6938 117.453 10.0936 117.458 9.46563V2.10611L117.454 1.26105ZM103.082 8.55266C103.082 6.85358 103.751 6.13289 105.317 6.13289C106.8 6.13289 107.553 6.50667 107.553 8.55266C107.553 9.54612 107.267 10.2204 106.765 10.4234H103.972C103.381 10.2839 103.082 9.6562 103.082 8.55266ZM89.6581 7.51714C89.8378 6.80801 90.5213 6.29739 91.3081 6.29739H94.776C95.6149 6.29739 96.4727 6.5442 96.4727 8.37376C96.4727 9.36733 96.3191 10.0156 96.0299 10.2517C95.8756 10.3591 95.6942 10.4211 95.5063 10.4305H89.6581V7.51714Z" fill="black"/>
<path d="M72.4824 9.72501H72.4923V9.56584C72.4923 9.5417 72.4923 9.51664 72.4923 9.49249V6.34217V5.33431C72.4923 5.22831 72.4501 5.12662 72.3747 5.05168C72.2995 4.97674 72.1973 4.93457 72.0909 4.93457H71.4971C71.3907 4.93457 71.2885 4.97674 71.2133 5.05168C71.1379 5.12662 71.0957 5.22831 71.0957 5.33431V6.34217V9.49249C71.0891 9.75143 70.9802 9.99722 70.7927 10.1767C70.6053 10.3561 70.3542 10.4548 70.0941 10.4511H65.3823C65.1224 10.4543 64.8717 10.3554 64.6845 10.1758C64.4974 9.99608 64.3889 9.7503 64.3826 9.49159V7.09687V6.8402C64.3827 6.7876 64.3724 6.73556 64.3523 6.68693C64.3321 6.63841 64.3026 6.59419 64.2653 6.55701C64.228 6.51982 64.1837 6.49023 64.1349 6.47017C64.0862 6.44999 64.0338 6.43956 63.9811 6.43956H63.3819C63.3292 6.43956 63.2769 6.44999 63.2281 6.47017C63.1793 6.49023 63.1351 6.51982 63.0977 6.55701C63.0604 6.59419 63.0309 6.63841 63.0108 6.68693C62.9906 6.73556 62.9804 6.7876 62.9805 6.8402V7.09687V9.49249C62.986 10.1215 63.2417 10.7227 63.6919 11.164C64.142 11.6055 64.7496 11.8512 65.3813 11.8471H70.0932C70.6846 11.8502 71.2563 11.6352 71.6975 11.2432C72.1388 10.8512 72.4185 10.3103 72.4824 9.72501Z" fill="black"/>
<path d="M145.752 9.68756H145.762V9.5293C145.762 9.50424 145.762 9.4793 145.762 9.45425V6.30472V5.29686C145.762 5.19063 145.719 5.08871 145.645 5.01366C145.569 4.9385 145.466 4.89632 145.36 4.89632H144.767C144.714 4.89621 144.662 4.90641 144.612 4.92659C144.564 4.94666 144.519 4.97614 144.482 5.01332C144.444 5.05062 144.415 5.09483 144.395 5.14347C144.375 5.19211 144.365 5.24426 144.365 5.29686V6.30472V9.45425C144.36 9.71318 144.252 9.95965 144.064 10.1396C143.877 10.3195 143.626 10.418 143.366 10.4137H140.333C140.512 9.9058 140.602 9.23782 140.602 8.34719C140.602 6.04453 139.635 4.8766 137.728 4.8766H135.56C135.469 4.87648 135.378 4.89451 135.293 4.92943C135.209 4.96446 135.132 5.01582 135.066 5.08055C134.826 5.32021 134.761 5.73061 135.073 6.11516C135.113 6.16346 135.163 6.20223 135.22 6.22876C135.277 6.25518 135.339 6.26867 135.402 6.2681H136.179H137.728C138.505 6.2681 139.202 6.42636 139.202 8.34356C139.202 9.63847 139.001 10.0954 138.834 10.2501C138.721 10.3547 138.515 10.395 138.227 10.4102H137.46V10.42H131.941C131.68 10.4255 131.429 10.3282 131.241 10.1493C131.053 9.97053 130.944 9.72475 130.937 9.46581V2.10627V1.263C130.937 1.15691 130.895 1.05524 130.82 0.980302C130.744 0.905365 130.641 0.863281 130.535 0.863281H129.937C129.831 0.863281 129.729 0.905365 129.654 0.980302C129.578 1.05524 129.535 1.15691 129.535 1.263V2.10627V9.46581C129.541 10.0947 129.797 10.6956 130.246 11.1371C130.696 11.5785 131.303 11.8241 131.935 11.8204H137.722C137.902 11.8204 138.088 11.8204 138.274 11.8105H143.362C143.955 11.8137 144.526 11.5985 144.967 11.2064C145.408 10.8142 145.688 10.2731 145.752 9.68756Z" fill="black"/>
<path d="M127.666 11.3025C128.236 10.774 128.479 9.89851 128.479 8.37471C128.479 6.07114 127.512 4.90332 125.605 4.90332H124.055H123.437C123.345 4.90321 123.255 4.92112 123.169 4.95615C123.084 4.99118 123.007 5.04243 122.943 5.10716C122.703 5.34682 122.637 5.75643 122.949 6.14189C122.989 6.19018 123.039 6.22896 123.097 6.25548C123.153 6.2819 123.216 6.29528 123.279 6.29471H124.055H125.605C126.381 6.29471 127.078 6.45388 127.078 8.37119C127.078 9.66599 126.879 10.123 126.711 10.2777C126.542 10.4324 126.162 10.4476 125.605 10.4476H122.621V11.8426H125.605C126.296 11.8462 127.078 11.8462 127.666 11.3025Z" fill="black"/>
<path d="M83.3672 17.7588H82.7726C82.5508 17.7588 82.3711 17.9377 82.3711 18.1585V29.9249C82.3711 30.1456 82.5508 30.3246 82.7726 30.3246H83.3672C83.5889 30.3246 83.7687 30.1456 83.7687 29.9249V18.1585C83.7687 17.9377 83.5889 17.7588 83.3672 17.7588Z" fill="black"/>
<path d="M145.566 17.7588H144.971C144.75 17.7588 144.57 17.9377 144.57 18.1585V29.9249C144.57 30.1456 144.75 30.3246 144.971 30.3246H145.566C145.788 30.3246 145.968 30.1456 145.968 29.9249V18.1585C145.968 17.9377 145.788 17.7588 145.566 17.7588Z" fill="black"/>
<path d="M79.9285 17.8281H71.755C71.6484 17.8281 71.5464 17.8703 71.471 17.9452C71.3958 18.0202 71.3535 18.1219 71.3535 18.2279V18.8199C71.3535 18.9259 71.3958 19.0276 71.471 19.1025C71.5464 19.1775 71.6484 19.2195 71.755 19.2195H75.1483V29.9254C75.1483 30.0314 75.1906 30.1331 75.2659 30.208C75.3412 30.2829 75.4433 30.3251 75.5498 30.3251H76.1364C76.2428 30.3251 76.345 30.2829 76.4202 30.208C76.4955 30.1331 76.5378 30.0314 76.5378 29.9254V19.2195H79.9258C79.9786 19.2195 80.0308 19.2092 80.0795 19.1891C80.1281 19.1691 80.1725 19.1396 80.2097 19.1025C80.247 19.0653 80.2766 19.0213 80.2968 18.9728C80.3169 18.9243 80.3273 18.8724 80.3273 18.8199V18.2297C80.3278 18.1238 80.2861 18.0221 80.2113 17.9468C80.1365 17.8715 80.0348 17.8288 79.9285 17.8281Z" fill="black"/>
<path d="M127.457 24.9091C129.146 24.42 130.105 23.2352 130.105 21.5387C130.105 19.2038 128.745 17.918 126.274 17.918C125.55 17.918 124.988 17.9109 124.538 17.9045C123.19 17.8858 122.832 17.8804 122.492 18.2122C122.213 18.4859 122.213 18.8256 122.213 19.051V29.9311C122.213 29.9836 122.223 30.0356 122.244 30.0842C122.264 30.1326 122.294 30.1767 122.33 30.2138C122.368 30.2509 122.412 30.2804 122.461 30.3005C122.51 30.3205 122.562 30.3309 122.615 30.3309H123.209C123.262 30.3309 123.314 30.3205 123.363 30.3005C123.411 30.2804 123.456 30.2509 123.493 30.2138C123.531 30.1767 123.56 30.1326 123.58 30.0842C123.6 30.0356 123.61 29.9836 123.61 29.9311V25.1666C124.041 25.1666 124.674 25.1595 125.515 25.1595C125.682 25.1595 125.844 25.1542 126.002 25.1452L129.021 29.9311C129.291 30.3612 129.453 30.3309 129.675 30.3309H130.475C130.696 30.3309 130.763 30.1521 130.624 29.9311L127.457 24.9091ZM123.613 23.7743V19.2933C123.842 19.2933 124.164 19.2933 124.518 19.2987C124.973 19.305 125.54 19.313 126.274 19.313C127.981 19.313 128.704 19.9783 128.704 21.5387C128.704 23.3782 126.971 23.7645 125.516 23.7645C124.679 23.7645 124.046 23.7681 123.613 23.7743Z" fill="black"/>
<path d="M94.9986 17.7588H94.4041C94.2975 17.7588 94.1954 17.8008 94.1201 17.8758C94.0449 17.9508 94.0025 18.0525 94.0025 18.1585V23.0983H88.1428V18.1585C88.1428 18.0525 88.1004 17.9508 88.0252 17.8758C87.9498 17.8008 87.8477 17.7588 87.7412 17.7588H87.1476C87.041 17.7588 86.9389 17.8008 86.8636 17.8758C86.7884 17.9508 86.7461 18.0525 86.7461 18.1585V29.9249C86.7461 30.0309 86.7884 30.1325 86.8636 30.2075C86.9389 30.2825 87.041 30.3246 87.1476 30.3246H87.7412C87.8477 30.3246 87.9498 30.2825 88.0252 30.2075C88.1004 30.1325 88.1428 30.0309 88.1428 29.9249V24.4888H94.0025V29.9239C94.0025 30.0299 94.0449 30.1316 94.1201 30.2066C94.1954 30.2816 94.2975 30.3237 94.4041 30.3237H94.9986C95.1052 30.3237 95.2072 30.2816 95.2826 30.2066C95.3578 30.1316 95.4001 30.0299 95.4001 29.9239V18.1585C95.4001 18.0525 95.3578 17.9508 95.2826 17.8758C95.2072 17.8008 95.1052 17.7588 94.9986 17.7588Z" fill="black"/>
<path d="M113.052 17.9449C112.334 17.9449 111.773 17.9297 111.323 17.918C110.181 17.8895 109.707 17.8769 109.328 18.2453C109.168 18.4012 109.063 18.6045 109.028 18.8248C109.001 18.8801 108.984 18.9414 108.984 19.0037V29.9321C108.984 29.9846 108.995 30.0366 109.015 30.0851C109.035 30.1335 109.065 30.1776 109.102 30.2148C109.14 30.2519 109.184 30.2814 109.232 30.3014C109.282 30.3215 109.333 30.3318 109.386 30.3318H109.681C109.689 30.3318 110.106 30.338 110.724 30.338C111.376 30.338 112.256 30.3309 113.111 30.3023C115.904 30.2129 117.32 28.1302 117.32 24.1222C117.321 21.1346 116.992 17.9449 113.052 17.9449ZM113.064 28.9109C112.065 28.9448 111.034 28.9476 110.382 28.9448V19.4579H110.393V19.3041C110.608 19.297 110.94 19.3041 111.291 19.3149C111.748 19.3264 112.318 19.3407 113.056 19.3407C114.999 19.3407 115.923 20.0562 115.923 24.1267C115.921 28.2822 114.394 28.8671 113.065 28.9109H113.064Z" fill="black"/>
<path d="M105.176 18.3229C104.916 18.1147 104.613 17.9657 104.289 17.8866C103.75 17.7506 103.233 17.7256 102.223 17.7256C101.213 17.7256 100.67 17.7721 100.157 17.8866C99.7641 17.966 99.3966 18.1402 99.0866 18.3936C98.1156 19.2538 98.1273 21.0047 98.1444 21.4125C98.1373 21.4419 98.1338 21.4718 98.1335 21.5019V23.9101C98.1247 23.9431 98.1198 23.977 98.1191 24.0112V24.6032C98.1198 24.6373 98.1247 24.6712 98.1335 24.7042V29.9087C98.1338 30.0147 98.1762 30.1161 98.2514 30.1911C98.3266 30.266 98.4287 30.3082 98.535 30.3084H99.1297C99.1824 30.3084 99.2346 30.2981 99.2833 30.278C99.332 30.2578 99.3763 30.2285 99.4135 30.1913C99.4508 30.1542 99.4804 30.1101 99.5006 30.0616C99.5208 30.0132 99.5311 29.9611 99.5311 29.9087V25.0011H104.753C104.771 25.0002 104.788 24.9985 104.805 24.9958V29.9238C104.805 30.0298 104.848 30.1315 104.923 30.2065C104.998 30.2815 105.1 30.3236 105.207 30.3236H105.801C105.908 30.3236 106.01 30.2815 106.085 30.2065C106.161 30.1315 106.203 30.0298 106.203 29.9238V21.5001C106.203 21.481 106.201 21.4618 106.197 21.4429C106.219 21.0897 106.26 19.176 105.176 18.3229ZM104.758 23.6096H99.5356V21.5001H99.541C99.541 21.5001 99.3667 19.2869 100.825 19.1671C101.363 19.1232 103.223 19.125 103.527 19.1671C104.976 19.3665 104.81 21.5001 104.81 21.5001V23.615C104.793 23.6119 104.775 23.61 104.758 23.6096Z" fill="black"/>
<path d="M140.088 18.3249C139.828 18.1166 139.525 17.9677 139.201 17.8885C138.667 17.7526 138.145 17.7275 137.135 17.7275C136.125 17.7275 135.582 17.774 135.069 17.8885C134.676 17.968 134.309 18.1421 133.999 18.3955C133.027 19.2558 133.039 21.0067 133.057 21.4144C133.05 21.4438 133.046 21.4737 133.045 21.5039V23.9121C133.037 23.9451 133.031 23.979 133.031 24.0131V24.6051C133.031 24.6392 133.037 24.6731 133.045 24.7061V29.9106C133.045 29.9631 133.055 30.0151 133.076 30.0635C133.096 30.1121 133.126 30.1562 133.164 30.1932C133.201 30.2304 133.244 30.2598 133.294 30.28C133.342 30.3 133.394 30.3103 133.447 30.3103H134.042C134.095 30.3103 134.146 30.3 134.195 30.28C134.244 30.2598 134.288 30.2304 134.326 30.1932C134.363 30.1562 134.393 30.1121 134.412 30.0635C134.433 30.0151 134.444 29.9631 134.444 29.9106V25.0031H139.666C139.683 25.0021 139.7 25.0004 139.717 24.9977V29.9258C139.717 30.0318 139.76 30.1335 139.835 30.2084C139.91 30.2835 140.012 30.3255 140.118 30.3255H140.717C140.823 30.3255 140.926 30.2835 141.001 30.2084C141.077 30.1335 141.118 30.0318 141.118 29.9258V21.5021C141.118 21.4829 141.116 21.4638 141.114 21.4448C141.131 21.0917 141.172 19.178 140.088 18.3249ZM139.67 23.6115H134.448V21.5021H134.453C134.453 21.5021 134.279 19.2889 135.736 19.169C136.275 19.1252 138.135 19.127 138.439 19.169C139.888 19.3685 139.722 21.5021 139.722 21.5021V23.617C139.705 23.6138 139.687 23.612 139.67 23.6115Z" fill="black"/>
<path d="M69.584 17.8268H68.1325C67.8397 17.816 67.4983 17.8097 67.104 17.8097C66.4133 17.8009 65.7228 17.843 65.0383 17.9358C64.6591 17.9823 64.3032 18.1419 64.017 18.3937C63.1754 19.1386 63.072 20.5524 63.0703 21.1819V27.0276C63.0765 27.6741 63.1915 29.0476 64.017 29.7782C64.3032 30.03 64.6591 30.1896 65.0383 30.2361C65.7228 30.329 66.4133 30.3711 67.104 30.3622C67.4983 30.3622 67.8397 30.3559 68.1325 30.3452H69.584C69.6367 30.3452 69.689 30.3348 69.7376 30.3148C69.7863 30.2947 69.8305 30.2652 69.8679 30.2282C69.9052 30.191 69.9347 30.1469 69.955 30.0985C69.9751 30.0499 69.9855 29.9979 69.9855 29.9454V29.3544C69.9855 29.3019 69.9751 29.2499 69.955 29.2014C69.9347 29.1529 69.9052 29.1089 69.8679 29.0717C69.8305 29.0346 69.7863 29.0051 69.7376 28.9851C69.689 28.965 69.6367 28.9547 69.584 28.9547H66.8445C66.364 28.9457 65.9148 28.9305 65.7028 28.9126C64.625 28.8232 64.5011 27.6982 64.4777 27.0624C64.4724 26.8979 64.4706 26.7638 64.4696 26.7047V24.5201H69.584C69.6905 24.5201 69.7925 24.478 69.8679 24.403C69.9432 24.3281 69.9855 24.2264 69.9855 24.1204V23.5293C69.9855 23.4233 69.9432 23.3217 69.8679 23.2466C69.7925 23.1717 69.6905 23.1296 69.584 23.1296H64.4696V21.4672C64.4696 21.4091 64.4696 21.274 64.4777 21.1095C64.5011 20.4737 64.6224 19.3478 65.7028 19.2593C65.9148 19.2423 66.364 19.2271 66.8445 19.2181H69.584C69.6905 19.2181 69.7925 19.1761 69.8679 19.1011C69.9432 19.0262 69.9855 18.9245 69.9855 18.8185V18.2283C69.9857 18.1756 69.9755 18.1234 69.9554 18.0748C69.9354 18.0261 69.9058 17.9817 69.8686 17.9444C69.8312 17.9071 69.7869 17.8775 69.738 17.8574C69.6892 17.8372 69.6369 17.8268 69.584 17.8268Z" fill="black"/>
<path d="M156.553 28.96H153.813C153.333 28.951 152.883 28.9358 152.671 28.918C151.594 28.8286 151.469 27.7036 151.446 27.0678C151.446 26.9301 151.44 26.8121 151.44 26.7431V18.1585C151.44 18.0525 151.397 17.9508 151.322 17.8758C151.246 17.8008 151.145 17.7588 151.037 17.7588H150.443C150.337 17.7588 150.235 17.8008 150.16 17.8758C150.084 17.9508 150.041 18.0525 150.041 18.1585V27.1715C150.042 27.2103 150.049 27.2489 150.061 27.2859C150.103 28.0344 150.284 29.2686 150.988 29.7836C151.271 29.9911 151.585 30.1824 152.01 30.2414C152.694 30.3342 153.384 30.3764 154.075 30.3676C154.469 30.3676 154.811 30.3612 155.104 30.3506H156.557C156.663 30.3506 156.765 30.3084 156.84 30.2334C156.915 30.1585 156.958 30.0568 156.958 29.9508V29.3597C156.958 29.307 156.947 29.2548 156.926 29.2061C156.907 29.1574 156.877 29.1132 156.839 29.0762C156.802 29.039 156.757 29.0096 156.708 28.9897C156.659 28.9697 156.606 28.9596 156.553 28.96Z" fill="black"/>
</svg>
